<svg width="160" height="182" viewBox="0 0 160 182" fill="none" xmlns="http://www.w3.org/2000/svg">
<rect y="79.9067" width="112.895" height="5.34" transform="rotate(-45 0 79.9067)" fill="white"/>
<rect x="79.4845" y="159.316" width="112.357" height="5.34" transform="rotate(-135 79.4845 159.316)" fill="white"/>
<rect x="76.0363" y="155.705" width="112.59" height="5.34" transform="rotate(-45 76.0363 155.705)" fill="white"/>
<rect x="155.76" y="83.3851" width="112.586" height="5.33837" transform="rotate(-135 155.76 83.3851)" fill="white"/>
<rect x="79.897" y="181.451" width="112.94" height="15.6" transform="rotate(-135 79.897 181.451)" fill="white"/>
<rect x="68.877" y="170.416" width="112.935" height="15.6007" transform="rotate(-45 68.877 170.416)" fill="white"/>
<rect x="66.0363" y="80.2344" width="20" height="20" transform="rotate(-45 66.0363 80.2344)" fill="white"/>
<rect x="79.7944" y="136.357" width="79.9244" height="21.5719" transform="rotate(-135 79.7944 136.357)" fill="white"/>
<rect x="23.3336" y="79.7696" width="79.92" height="21.7534" transform="rotate(-45 23.3336 79.7696)" fill="white"/>
<rect x="121.036" y="95.0922" width="79.954" height="22.0564" transform="rotate(-135 121.036 95.0922)" fill="white"/>
<rect x="79.7653" y="136.313" width="21.1774" height="80.3601" transform="rotate(-135 79.7653 136.313)" fill="white"/>
<rect x="33.6429" y="79.6608" width="65" height="65" transform="rotate(-45 33.6429 79.6608)" stroke="white" stroke-width="15"/>
<rect x="56.1425" y="80.2307" width="34.0044" height="33.7875" transform="rotate(-45 56.1425 80.2307)" stroke="black" stroke-width="14"/>
<rect x="18.1966" y="79.8727" width="87.3193" height="87.0097" transform="rotate(-45 18.1966 79.8727)" stroke="black" stroke-width="15"/>
</svg>
